<?xml version="1.0" encoding="utf-8"?>
<!-- Generator: Adobe Illustrator 20.0.0, SVG Export Plug-In . SVG Version: 6.00 Build 0)  -->
<svg version="1.1" id="Calque_1" xmlns="http://www.w3.org/2000/svg" xmlns:xlink="http://www.w3.org/1999/xlink" x="0px" y="0px"
	 viewBox="0 0 32 32" style="enable-background:new 0 0 32 32;" xml:space="preserve" width="30px">
<style type="text/css">
	.st0{display:none;}
	.st1{display:inline;}
	.st2{display:none;fill-rule:evenodd;clip-rule:evenodd;}
	.st3{display:inline;fill:#010202;}
	.st4{fill:#010202;}
	.st5{display:inline;fill-rule:evenodd;clip-rule:evenodd;fill:#12100B;}
</style>
<path class="st0" d="M31.9,25.5c0.2,0.6,0.1,1.1-0.2,1.7c-0.3,0.5-0.8,0.9-1.3,1c-0.6,0.2-1.2,0.1-1.7-0.2l-7.3-4.2
	c-1.6,1.9-3.7,3.2-6.1,3.9c-1.6,0.4-3.2,0.5-4.8,0.3c-1.6-0.2-3.1-0.7-4.4-1.5c-1.3-0.8-2.5-1.8-3.5-3.1c-1-1.3-1.7-2.7-2.2-4.3
	c-0.4-1.6-0.5-3.2-0.3-4.8c0.2-1.6,0.7-3.1,1.5-4.4c0.8-1.3,1.8-2.5,3.1-3.5C6,5.3,7.4,4.5,9,4.1c1.6-0.4,3.2-0.5,4.8-0.3
	c1.6,0.2,3.1,0.7,4.4,1.5c1.3,0.8,2.5,1.8,3.5,3.1c1,1.3,1.7,2.7,2.2,4.3c0.7,2.5,0.6,4.9-0.3,7.2l7.3,4.2
	C31.4,24.5,31.8,24.9,31.9,25.5z M18.9,19.8c1.1-1.9,1.3-3.8,0.8-5.9c-0.6-2.1-1.8-3.6-3.6-4.7c-1.9-1.1-3.8-1.3-5.9-0.8
	C8.1,8.9,6.5,10.2,5.5,12c-1.1,1.9-1.3,3.8-0.8,5.9c0.6,2.1,1.8,3.6,3.6,4.7c1.9,1.1,3.8,1.3,5.9,0.8C16.2,22.8,17.8,21.6,18.9,19.8
	z"/>
<g class="st0">
	<path class="st1" d="M16,0C7.2,0,0,7.2,0,16c0,8.8,7.2,16,16,16c8.8,0,16-7.2,16-16C32,7.2,24.8,0,16,0z M16,30.6
		C8,30.6,1.4,24,1.4,16C1.4,8,8,1.4,16,1.4C24,1.4,30.6,8,30.6,16C30.6,24,24,30.6,16,30.6z"/>
	<path class="st1" d="M16,10.6c-4.7,0-8.5,5.4-8.5,5.4s3.8,5.4,8.5,5.4c4.7,0,8.5-5.4,8.5-5.4S20.7,10.6,16,10.6z M16,18.7
		c-1.5,0-2.7-1.2-2.7-2.7c0-1.5,1.2-2.7,2.7-2.7c0.5,0,0.9,0.1,1.3,0.4L16,16l2.3-1.3c0.2,0.4,0.4,0.9,0.4,1.3
		C18.7,17.5,17.5,18.7,16,18.7z"/>
</g>
<g class="st0">
	<polygon class="st1" points="15.4,18 17.6,18 18,9.5 15,9.5 	"/>
	<path class="st1" d="M16.5,19.5c-0.5,0-0.9,0.1-1.2,0.4C15.1,20.2,15,20.5,15,21c0,0.5,0.1,0.8,0.4,1.1s0.7,0.4,1.1,0.4
		c0.5,0,0.9-0.1,1.1-0.4c0.3-0.3,0.4-0.6,0.4-1.1c0-0.5-0.1-0.8-0.4-1.1C17.4,19.7,17,19.5,16.5,19.5z"/>
	<path class="st1" d="M16,0C7.2,0,0,7.2,0,16c0,8.8,7.2,16,16,16c8.8,0,16-7.2,16-16C32,7.2,24.8,0,16,0z M16,30.6
		C8,30.6,1.4,24,1.4,16C1.4,8,8,1.4,16,1.4C24,1.4,30.6,8,30.6,16C30.6,24,24,30.6,16,30.6z"/>
</g>
<path class="st2" d="M18.7,7.1v1.8h7.1v21.3H6.2V8.9h7.1V7.1H4.4V32h23.1V7.1H18.7z M11.5,17.3l3.6,3.6h1.8l3.4-3.5L19,16.2
	l-2.1,2.1V0h-1.8v18.2L12.9,16L11.5,17.3z"/>
<path class="st2" d="M21.3,0H7.1v3.6H3.6V32h21.3v-3.6h3.6V7.1L21.3,0z M25.4,7.1h-4.1V3L25.4,7.1z M17.8,6.6l1.8,1.8v0.5h0.5
	l1.8,1.8h-4.1V6.6z M8.9,1.8h10.7v3.6l-1.8-1.8H8.9V1.8z M23.1,30.2H5.3V5.3H16v7.1h7.1V30.2z M26.7,26.7h-1.8v-16l-1.7-1.8h3.5
	V26.7z"/>
<path class="st0" d="M30.9,5.7C30.9,5.7,30.9,5.7,30.9,5.7l-29.8,0c0,0,0,0,0,0C0.5,5.7,0,6.2,0,6.8v18.3c0,0.6,0.5,1.1,1.1,1.1
	c0,0,0,0,0,0h29.8c0,0,0,0,0,0c0.6,0,1.1-0.5,1.1-1.1V6.8C32,6.2,31.5,5.7,30.9,5.7z M2.3,25l8.2-8.1l4.7,4.6c0.4,0.4,1.2,0.4,1.6,0
	l4.7-4.6l8.2,8.1H2.3z M16,20.5L2.3,7h27.5L16,20.5z M9.6,16l-8.4,8.3V7.7L9.6,16z M22.4,16l8.4-8.3v16.6L22.4,16z"/>
<path class="st2" d="M32,23.1l-8.1-4.5c1.2-4.9-1-10.1-5.7-12.8C12.4,2.6,5,4.5,1.6,10.1c-3.3,5.6-1.4,12.8,4.4,16
	c5.2,2.9,11.7,1.6,15.4-2.7l7.8,4.3L32,23.1z M18.2,19.3c-1.9,3.3-6.3,4.4-9.6,2.5c-3.4-1.9-4.5-6.1-2.6-9.3C8,9.2,12.3,8.1,15.7,10
	C19,11.8,20.2,16,18.2,19.3z"/>
<path class="st2" d="M14.9,4.3H8.5v2.1h6.4V4.3z M23.5,25.6h-6.4v2.1h6.4V25.6z M23.5,21.3h-6.4v2.1h6.4V21.3z M14.9,8.5H8.5v2.1
	h6.4V8.5z M23.5,17.1h-6.4v2.1h6.4V17.1z M14.9,21.3H8.5v2.1h6.4V21.3z M14.9,12.8H8.5v2.1h6.4V12.8z M4.3,0v32h23.5V0H4.3z
	 M25.6,29.9H6.4V2.1h19.2V29.9z M14.9,25.6H8.5v2.1h6.4V25.6z M14.9,17.1H8.5v2.1h6.4V17.1z M23.5,4.3h-6.4v10.7h6.4V4.3z"/>
<path class="st2" d="M25.6,12.8v1.1c0,5.3-4.3,9.6-9.6,9.6h0c-5.3,0-9.6-4.3-9.6-9.6v-1.1H4.3v1.1C4.3,20,9,24.9,14.9,25.5v4.4h-4.3
	V32h10.7v-2.1h-4.3v-4.4c6-0.5,10.7-5.5,10.7-11.6v-1.1H25.6z M16,21.3c4.1,0,7.5-3.3,7.5-7.5v-1.1h-3.2c-0.6,0-1.1-0.5-1.1-1.1
	c0-0.6,0.5-1.1,1.1-1.1h3.2V8.5h-3.2c-0.6,0-1.1-0.5-1.1-1.1c0-0.6,0.5-1.1,1.1-1.1h3.1C22.8,2.8,19.8,0,16,0
	c-4.1,0-7.5,3.3-7.5,7.5v6.4C8.5,18,11.9,21.3,16,21.3z"/>
<path class="st2" d="M25.8,32C25.8,17.7,14.2,6.2,0,6.2V0c17.6,0,31.9,14.3,32,32H25.8z M21.1,32H15c0-4-1.6-7.7-4.4-10.5
	C7.8,18.7,4,17.1,0,17.1v-6.2C11.6,10.9,21,20.4,21.1,32z M4.3,23.5c2.4,0,4.3,1.9,4.3,4.3c0,2.4-1.9,4.3-4.3,4.3
	C1.9,32,0,30.1,0,27.7C0,25.4,1.9,23.5,4.3,23.5z"/>
<path class="st0" d="M30.8,15.2c-0.1,0.1-0.2,0.1-0.4,0.2V3.1c0-1.7-1.3-3.1-2.9-3.1H4.6C3,0,1.6,1.4,1.6,3.1v12.4
	c-0.1-0.1-0.3-0.1-0.4-0.2c-1-0.7-1.6,0.2-1,1.1c1.2,1.4,3.4,3.1,6.8,4.5c-3.6,12,8.8,13.9,8.6,7.7c0,0.1,0-3.5,0-6
	c0.3,0.1,0.6,0.1,0.9,0.2c0,2.5,0,5.9,0,5.8c-0.2,6.1,12.2,4.2,8.6-7.7c3.4-1.4,5.6-3.1,6.8-4.5C32.4,15.5,31.7,14.6,30.8,15.2z
	 M28.8,16.4c-4.4,2.3-8.2,1.9-10.2,1.9c-1.5-0.1-2,0.6-2.1,1.5c-0.4-0.3-0.7-0.5-1.1-0.9c-0.1-0.1-0.1-0.1-0.2-0.2
	c-0.3-0.3-0.9-0.5-1.7-0.5c-2,0.1-5.7,0.4-10-1.8v-12c0-2.2,0.6-2.9,2.6-2.9h20.2c1.9,0,2.6,0.8,2.6,2.9V16.4z M11.6,9.6
	c-2.2,0-3.9,1.6-3.9,3.6c0,2,1.8,3.6,3.9,3.6c2.2,0,3.9-1.6,3.9-3.6C15.6,11.2,13.8,9.6,11.6,9.6z M20.8,9.6c-2.2,0-3.9,1.6-3.9,3.6
	c0,2,1.8,3.6,3.9,3.6c2.2,0,3.9-1.6,3.9-3.6C24.7,11.2,23,9.6,20.8,9.6z"/>
<path class="st0" d="M32,6.1c-1.2,0.5-2.4,0.9-3.8,1c1.4-0.8,2.4-2.1,2.9-3.6c-1.3,0.8-2.7,1.3-4.2,1.6C25.7,3.8,24,3,22.2,3
	c-3.6,0-6.6,2.9-6.6,6.6c0,0.5,0.1,1,0.2,1.5C10.3,10.8,5.5,8.2,2.2,4.2c-0.6,1-0.9,2.1-0.9,3.3c0,2.3,1.2,4.3,2.9,5.5
	c-1.1,0-2.1-0.3-3-0.8c0,0,0,0.1,0,0.1c0,3.2,2.3,5.8,5.3,6.4c-0.6,0.2-1.1,0.2-1.7,0.2c-0.4,0-0.8,0-1.2-0.1
	c0.8,2.6,3.3,4.5,6.1,4.6c-2.2,1.8-5.1,2.8-8.2,2.8c-0.5,0-1.1,0-1.6-0.1C2.9,27.9,6.4,29,10.1,29c12.1,0,18.7-10,18.7-18.7
	c0-0.3,0-0.6,0-0.8C30,8.5,31.1,7.4,32,6.1z"/>
<path class="st2" d="M19.8,0c0,0-11,11.3-12,12.4c-2.2,2.2-2.5,4.7,0,7.3c3.8,3.8,12,12.3,12,12.3l6.2-6.4L16.7,16L26,6.4L19.8,0z"
	/>
<path class="st2" d="M32,19.8c0,0-11.3-11-12.4-12c-2.2-2.2-4.7-2.5-7.3,0C8.5,11.5,0,19.7,0,19.7l6.4,6.2l9.5-9.2l9.6,9.3L32,19.8z
	"/>
<path class="st2" d="M12.2,32c0,0,11-11.3,12-12.4c2.2-2.2,2.5-4.7,0-7.3C20.5,8.5,12.3,0,12.3,0L6.1,6.4l9.2,9.5L6,25.6L12.2,32z"
	/>
<path class="st2" d="M0,12.2c0,0,11.3,11,12.4,12c2.2,2.2,4.7,2.5,7.3,0c3.8-3.8,12.3-12,12.3-12l-6.4-6.2L16,15.3L6.4,6L0,12.2z"/>
<path class="st2" d="M23.2,12.8L10.4,0L7.3,3.2L20.1,16C15.3,20.8,7.3,28.8,7.3,28.8l3.2,3.2c0,0,10.8-10.8,12.8-12.8
	C25.3,17.2,25.3,14.8,23.2,12.8z"/>
<polygon class="st2" points="32,6.4 25.6,0 16,9.7 6.4,0 0,6.4 9.5,16 0.1,25.6 6.4,32 16,22.3 25.6,32 31.9,25.6 22.5,16 "/>
<polygon class="st2" points="26.5,15.8 26.5,15.8 7.3,0 5.5,1.5 23,15.9 5.3,30.5 7.2,32 26.7,16 "/>
<path class="st0" d="M31.1,11.3L17.3,1.6c-0.4-0.3-0.8-0.4-1.3-0.4c-0.5,0-0.9,0.1-1.3,0.4L0.9,11.3c-1,0.7-1.2,2-0.5,3
	c0.5,0.6,1.2,0.9,1.9,0.9v13.6c0,1.2,0.9,2.1,2.1,2.1h23.3c1.2,0,2.1-0.9,2.1-2.1V15.1c0.7,0,1.3-0.3,1.7-0.9
	C32.3,13.3,32.1,12,31.1,11.3z M25.6,26.6h-7.4v-6.4c0-1.2-0.9-2.1-2.1-2.1c-1.2,0-2.1,0.9-2.1,2.1v6.4H6.5V12.8c0-0.1,0-0.1,0-0.2
	L16,5.9l9.7,6.8c0,0,0,0.1,0,0.1V26.6z"/>
<g class="st0">
	<path class="st3" d="M18.8,7.4H13c-0.7,0-1.4,0.6-1.4,1.4l-0.9,9c0,0.7,0.6,1.4,1.4,1.4h0.8l1.4,11.4c0,0.5,0.4,0.9,0.9,0.9h1.7
		c0.5,0,0.9-0.4,0.9-0.9L19,19.1h0.8c0.7,0,1.4-0.6,1.4-1.4l-1-9C20.2,8,19.6,7.4,18.8,7.4z"/>
	<circle class="st3" cx="15.9" cy="3.5" r="2.8"/>
	<path class="st3" d="M31.3,10.3c0-0.6-0.5-1-1-1h-4.6c-0.6,0-1,0.5-1,1l-0.7,6.9c0,0.6,0.5,1,1,1h0.6l1.1,8.8
		c0,0.4,0.3,0.7,0.7,0.7h1.3c0.4,0,0.7-0.3,0.7-0.7l1-8.8H31c0.6,0,1-0.5,1-1L31.3,10.3z"/>
	<circle class="st3" cx="28" cy="6.3" r="2.2"/>
	<path class="st3" d="M6.3,9.3H1.7c-0.6,0-1,0.5-1,1L0,17.3c0,0.6,0.5,1,1,1h0.6l1.1,8.8c0,0.4,0.3,0.7,0.7,0.7h1.3
		c0.4,0,0.7-0.3,0.7-0.7l1-8.8H7c0.6,0,1-0.5,1-1l-0.7-6.9C7.3,9.8,6.9,9.3,6.3,9.3z"/>
	<circle class="st3" cx="4" cy="6.3" r="2.2"/>
</g>
<g class="st0">
	<g class="st1">
		<path class="st4" d="M15.8,13.3c-2.9,0-5.3-0.5-5.3-1.2v1.6c0,0.7,2.4,1.2,5.3,1.2c2.9,0,5.3-0.5,5.3-1.2v-1.6
			C21.1,12.8,18.7,13.3,15.8,13.3z M15.8,16.4c-2.9,0-5.3-0.5-5.3-1.2v1.6c0,0.7,2.4,1.2,5.3,1.2c2.9,0,5.3-0.5,5.3-1.2v-1.6
			C21.1,15.9,18.7,16.4,15.8,16.4z M15.8,19.6c-2.9,0-5.3-0.5-5.3-1.2v1.6c0,0.7,2.4,1.2,5.3,1.2c2.9,0,5.3-0.5,5.3-1.2v-1.6
			C21.1,19,18.7,19.6,15.8,19.6z M15.8,22.7c-2.9,0-5.3-0.5-5.3-1.2V23c0,0.7,2.4,1.2,5.3,1.2c2.9,0,5.3-0.5,5.3-1.2v-1.6
			C21.1,22.1,18.7,22.7,15.8,22.7z M15.8,7.8c-2.9,0-5.3,0.5-5.3,1.2v1.6c0,0.7,2.4,1.2,5.3,1.2c2.9,0,5.3-0.5,5.3-1.2V9
			C21.1,8.3,18.7,7.8,15.8,7.8z M27.5,17.2c-2.5,0-4.5-0.5-4.5-1v1.3c0,0.6,2,1,4.5,1c2.5,0,4.5-0.5,4.5-1v-1.3
			C32,16.7,30,17.2,27.5,17.2z M27.5,19.8c-2.5,0-4.5-0.5-4.5-1v1.3c0,0.6,2,1,4.5,1c2.5,0,4.5-0.5,4.5-1v-1.3
			C32,19.3,30,19.8,27.5,19.8z M27.5,12.4c-2.5,0-4.5,0.5-4.5,1v1.3c0,0.6,2,1,4.5,1c2.5,0,4.5-0.5,4.5-1v-1.3
			C32,12.9,30,12.4,27.5,12.4z M4.5,19.3c-2.5,0-4.5-0.5-4.5-1v1.3c0,0.6,2,1,4.5,1c2.5,0,4.5-0.5,4.5-1v-1.3
			C9,18.8,7,19.3,4.5,19.3z M4.5,14.6C2,14.6,0,15,0,15.6v1.3c0,0.6,2,1,4.5,1C7,18,9,17.5,9,16.9v-1.3C9,15,7,14.6,4.5,14.6z"/>
	</g>
</g>
<path class="st2" d="M25.4,32H6.6c-1.2,0-2.1-0.9-2.1-2.1V5.1c0-1.1,0.9-2.1,2.1-2.1h5.2v2.1H7.6c-0.6,0-1,0.5-1,1v22.7
	c0,0.6,0.5,1,1,1h16.7c0.6,0,1-0.5,1-1V6.3c0-0.6-0.5-1-1-1h-4.2V3.1h5.2c1.2,0,2.1,0.9,2.1,2.1v24.8C27.5,31.1,26.6,32,25.4,32z
	 M11.8,11.4h11.5v1H11.8V11.4z M11.8,14.5h11.5v1H11.8V14.5z M11.8,17.6h11.5v1H11.8V17.6z M11.8,20.6h11.5v1H11.8V20.6z M23.3,27.8
	H11.8v-1h11.5V27.8z M11.8,23.7h11.5v1H11.8V23.7z M8.7,11.4h1v1h-1V11.4z M8.7,14.4h1v1h-1V14.4z M8.7,17.5h1v1h-1V17.5z M8.7,20.6
	h1v1h-1V20.6z M9.7,27.8h-1v-1h1V27.8z M8.7,23.7h1v1h-1V23.7z M22.3,6.3c0.6,0,1,0.5,1,1c0,0.6,0,2,0,2H8.7c0,0,0-1.4,0-2
	c0-0.6,0.5-1,1-1h3.1c0,0,0-1.5,0-3.1C12.9,1.5,14.2,0,16,0s3.2,1.5,3.2,3.2c0,1.8,0,3.1,0,3.1H22.3z M16,3.1c-0.6,0-1,0.5-1,1
	c0,0.6,0.5,1,1,1c0.6,0,1-0.5,1-1C17,3.5,16.6,3.1,16,3.1z"/>
<g class="st0">
	<polygon class="st3" points="27.4,25.6 1.7,25.6 1.7,9 17.8,9 17.8,7.3 1.7,7.3 0,7.3 0,9 0,25.6 0,27.3 1.7,27.3 27.4,27.3 
		29,27.3 29,25.6 29,16.1 27.4,16.1 	"/>
	<polygon class="st3" points="24.1,7.2 26.1,9.3 17.5,17.9 15,15.3 13.9,14.2 12.7,15.3 6,22.1 7.2,23.2 13.9,16.5 16.4,19 
		17.5,20.2 18.7,19 27.3,10.4 29.5,12.7 32,4.7 	"/>
</g>
<g class="st0">
	<path class="st1" d="M23.9,8h-16c-1.1,0-2,0.9-2,2v11c0,1.1,0.9,2,2,2H10v4l6-4h7.9c1.1,0,2-0.9,2-2V10C25.9,8.9,25,8,23.9,8z
		 M23.9,21H16h-0.6l-0.5,0.3L12,23.2V23v-2h-2H7.9V10h16V21z"/>
	<path class="st1" d="M11,14h10c0.6,0,1-0.4,1-1s-0.4-1-1-1H11c-0.6,0-1,0.4-1,1S10.4,14,11,14z"/>
	<path class="st1" d="M19,16h-6c-0.6,0-1,0.4-1,1s0.4,1,1,1h6c0.6,0,1-0.4,1-1S19.6,16,19,16z"/>
	<path class="st1" d="M16,0C7.2,0,0,7.2,0,16c0,8.8,7.2,16,16,16c8.8,0,16-7.2,16-16C32,7.2,24.8,0,16,0z M16,30.6
		C8,30.6,1.4,24,1.4,16C1.4,8,8,1.4,16,1.4C24,1.4,30.6,8,30.6,16C30.6,24,24,30.6,16,30.6z"/>
</g>
<g class="st0">
	<path class="st3" d="M30.1,17.9c0.3-0.1,0.6-0.2,0.8-0.3c0.7-0.4,1.1-1.2,1.1-2.5c0-1.4-0.4-2.7-1.1-4c-0.7-1.3-1.8-2.4-3.2-3.2
		c-0.4-0.2-0.7-0.4-1.1-0.5c2.2,2.6,3.5,6,3.5,9.6C30.1,17.3,30.1,17.6,30.1,17.9z"/>
	<path class="st3" d="M30,20.3c-0.1,0-0.2,0-0.2,0c-0.6,2.4-1.7,4.7-3.3,6.5c0.1,0,0.3-0.1,0.4-0.1c1.1-0.4,2-0.8,2.7-1.4
		c0.7-0.6,1.3-1.2,1.6-1.8c0.4-0.6,0.5-1.1,0.5-1.6c0-0.5-0.2-0.9-0.5-1.2C30.9,20.4,30.5,20.3,30,20.3z"/>
	<path class="st3" d="M15.4,24.5c-1.8-1.9-2.7-4.4-2.7-7.6c0-1.5,0.2-2.9,0.7-4.2c0.4-1.3,1.1-2.4,2-3.3c0.9-0.9,1.9-1.6,3.2-2.1
		c1.3-0.5,2.6-0.7,4.2-0.7c1.5,0,2.8,0.2,4,0.7C23.9,4,19.7,1.9,15.1,1.9C6.7,1.9,0,8.6,0,16.9S6.7,32,15.1,32c4.5,0,8.6-2,11.3-5.2
		c-1,0.3-2.1,0.4-3.4,0.4C19.8,27.3,17.2,26.3,15.4,24.5z"/>
	<path class="st3" d="M17.9,18.2c0,1.2,0.2,2.2,0.7,3c0.5,0.9,1.1,1.5,1.8,2c0.7,0.4,1.6,0.7,2.5,0.7c0.6,0,1.2-0.1,1.7-0.2
		c0.5-0.1,1-0.4,1.5-0.7c0.5-0.3,0.9-0.6,1.3-1s0.9-0.8,1.5-1.4c0.2-0.2,0.5-0.3,0.9-0.3c0.2-0.8,0.3-1.6,0.3-2.4
		c-0.6,0.2-1.4,0.3-2.2,0.3H17.9z"/>
	<path class="st3" d="M25.7,11.4c-0.8-0.9-1.9-1.3-3.2-1.3c-1.3,0-2.3,0.4-3.1,1.3c-0.8,0.9-1.3,2.2-1.5,3.9h9.2
		C27,13.6,26.5,12.3,25.7,11.4z"/>
</g>
<g id="Calque_2" class="st0">
	<path class="st5" d="M30.9,2L31,12c0,0.5-0.4,0.9-1,0.9c-0.6,0-1-0.4-1-0.9l0-7.6L12.7,20.7c-0.4,0.4-1,0.4-1.4,0
		c-0.4-0.4-0.4-1,0-1.4L27.5,3l-7.7,0c-0.5,0-0.9-0.4-0.9-1c0-0.6,0.4-1,0.9-1l10-0.1c0,0,0,0,0,0c0,0,0,0,0,0H30
		c0.2,0,0.4,0.1,0.6,0.2c0,0,0.1,0,0.1,0.1c0,0,0,0,0,0.1C30.8,1.5,30.9,1.7,30.9,2L30.9,2C30.9,2,30.9,2,30.9,2
		C30.9,2,30.9,2,30.9,2z M3,6v22c0,0.6,0.4,1,1,1h22c0.6,0,1-0.4,1-1V15h2v14c0,1.1-0.9,2-2,2H3c-1.1,0-2-0.9-2-2V5c0-1.1,0.9-2,2-2
		h14v2H4C3.4,5,3,5.4,3,6z"/>
</g>
<g>
	<path d="M31.7,27.1L17.8,3c-0.4-0.6-1-1-1.7-1c0,0,0,0,0,0c-0.7,0-1.4,0.4-1.7,1L0.3,27.1c-0.4,0.6-0.4,1.4,0,2c0.4,0.6,1,1,1.7,1
		h28c0.7,0,1.4-0.4,1.7-1C32.1,28.5,32.1,27.7,31.7,27.1z M2,28.1L16.1,4L30,28.1H2z"/>
	<polygon points="14.9,19.9 17.1,19.9 17.5,11.3 14.5,11.3 	"/>
	<path d="M16,21.4c-0.5,0-0.9,0.1-1.2,0.4c-0.3,0.3-0.4,0.6-0.4,1.1c0,0.5,0.1,0.8,0.4,1.1s0.7,0.4,1.1,0.4c0.5,0,0.9-0.1,1.1-0.4
		c0.3-0.3,0.4-0.6,0.4-1.1c0-0.5-0.1-0.8-0.4-1.1C16.9,21.6,16.5,21.4,16,21.4z"/>
</g>
</svg>
