<?xml version="1.0" encoding="UTF-8"?>
<svg id="Calque_1" xmlns="http://www.w3.org/2000/svg" version="1.1" viewBox="0 0 70 70">
  <!-- Generator: Adobe Illustrator 29.2.1, SVG Export Plug-In . SVG Version: 2.1.0 Build 116)  -->
  <defs>
    <style>
      .st0 {
        fill: #0085ff;
      }

      .st1 {
        fill: #fff;
      }
    </style>
  </defs>
  <rect class="st0" x="0" y="0" width="70" height="70" rx="35" ry="35"/>
  <path class="st1" d="M22.6,18.2c5,3.8,10.4,11.5,12.4,15.6v10.9c0-.2,0,0-.3.6-1,3.1-5.1,15-14.3,5.4-4.9-5-2.6-10,6.2-11.5-5.1.9-10.8-.6-12.3-6.2-.5-1.6-1.2-11.6-1.2-12.9,0-6.7,5.9-4.6,9.5-1.9ZM47.4,18.2c-5,3.8-10.4,11.5-12.4,15.6v10.9c0-.2,0,0,.3.6,1,3.1,5.1,15,14.3,5.4,4.9-5,2.6-10-6.2-11.5,5.1.9,10.8-.6,12.3-6.2.5-1.6,1.2-11.6,1.2-12.9,0-6.7-5.9-4.6-9.5-1.9h0Z"/>
</svg>